<?xml version="1.0" standalone="no"?>
<!DOCTYPE svg PUBLIC "-//W3C//DTD SVG 20010904//EN"
 "http://www.w3.org/TR/2001/REC-SVG-20010904/DTD/svg10.dtd">
<svg version="1.0" xmlns="http://www.w3.org/2000/svg"
 width="203.000000pt" height="203.000000pt" viewBox="0 0 203.000000 203.000000"
 preserveAspectRatio="xMidYMid meet">
<metadata>
Created by potrace 1.14, written by Peter Selinger 2001-2017
</metadata>
<g transform="translate(0.000000,203.000000) scale(0.100000,-0.100000)"
fill="#000000" stroke="none">
<path d="M1129 1604 l-56 -55 -409 1 c-457 1 -483 -2 -541 -62 -90 -93 -65
-225 52 -279 35 -16 68 -19 279 -19 l239 0 -23 -25 -23 -25 -259 0 -259 0 -24
-25 c-29 -28 -32 -70 -9 -103 15 -21 20 -22 195 -22 98 0 179 -3 179 -7 0 -4
-10 -17 -22 -31 l-23 -23 80 -77 c44 -42 168 -160 275 -262 107 -102 237 -225
288 -275 52 -49 100 -94 108 -98 11 -6 35 10 84 57 l70 65 34 -14 c28 -12 88
-15 276 -15 l241 0 24 25 c41 40 28 105 -26 124 -19 7 -108 11 -223 11 l-191
1 33 29 c30 28 38 30 106 30 59 0 78 4 100 21 34 26 37 86 5 115 l-21 19 24
18 c65 52 238 231 229 236 -5 4 -54 49 -108 101 -125 120 -326 312 -423 404
-41 39 -109 104 -150 143 l-76 72 -55 -55z m58 -326 l-2 -343 -357 -2 c-205
-1 -358 2 -358 7 0 5 12 18 26 29 25 20 39 21 263 21 226 0 238 1 276 23 72
40 106 119 85 196 -21 81 -91 130 -185 131 l-50 1 145 139 c80 76 148 139 152
140 4 0 6 -154 5 -342z m-310 87 l-28 -25 -292 0 c-161 0 -298 4 -306 9 -8 5
-11 16 -8 25 6 14 43 16 334 16 l328 -1 -28 -24z m67 -181 c9 -3 16 -12 16
-19 0 -21 -25 -25 -158 -25 l-125 0 23 25 c22 24 30 25 126 25 56 0 109 -3
118 -6z m842 -380 l-119 -115 -121 3 -121 3 -3 88 -3 87 -84 0 -85 0 0 -213 0
-214 30 -44 29 -44 -52 -52 c-28 -29 -55 -53 -59 -53 -4 0 -8 151 -8 335 l0
335 358 0 357 -1 -119 -115z m-321 -304 c-29 -31 -45 -31 -45 -1 0 25 9 31 44
31 l30 0 -29 -30z"/>
</g>
</svg>
